HIERARCHY
ROOT Hips
{
	OFFSET 0.000000 0.000000 0.000000
	CHANNELS 6 Xposition Yposition Zposition Xrotation Yrotation Zrotation
	JOINT LeftUpLeg_virtual
	{
		OFFSET 0.000000 0.000000 0.000000
		CHANNELS 3 Xrotation Yrotation Zrotation
		JOINT LeftUpLeg
		{
			OFFSET 15.427100 -6.655098 0.678600
			CHANNELS 3 Xrotation Yrotation Zrotation
			JOINT LeftLeg
			{
				OFFSET 4.081073 -39.591068 13.024000
				CHANNELS 3 Xrotation Yrotation Zrotation
				JOINT LeftFoot
				{
					OFFSET -4.081074 -37.707932 -15.979700
					CHANNELS 3 Xrotation Yrotation Zrotation
					JOINT LeftToeBase
					{
						OFFSET 5.346399 -15.068900 20.645000
						CHANNELS 3 Xrotation Yrotation Zrotation
						JOINT LeftToe_End
						{
							OFFSET 2.754700 0.931300 11.300900
							CHANNELS 3 Xrotation Yrotation Zrotation
							End Site
							{
								OFFSET 0 0 0
							}
						}
					}
				}
			}
		}
	}
	JOINT RightUpLeg_virtual
	{
		OFFSET 0.000000 0.000000 0.000000
		CHANNELS 3 Xrotation Yrotation Zrotation
		JOINT RightUpLeg
		{
			OFFSET -15.569500 -6.655098 0.678600
			CHANNELS 3 Xrotation Yrotation Zrotation
			JOINT RightLeg
			{
				OFFSET -4.081825 -39.591045 13.023800
				CHANNELS 3 Xrotation Yrotation Zrotation
				JOINT RightFoot
				{
					OFFSET 4.081824 -37.707954 -15.979600
					CHANNELS 3 Xrotation Yrotation Zrotation
					JOINT RightToeBase
					{
						OFFSET -5.346400 -15.068900 20.645000
						CHANNELS 3 Xrotation Yrotation Zrotation
						JOINT RightToe_End
						{
							OFFSET -2.754700 0.931300 11.300900
							CHANNELS 3 Xrotation Yrotation Zrotation
							End Site
							{
								OFFSET 0 0 0
							}
						}
					}
				}
			}
		}
	}
	JOINT Spine_virtual
	{
		OFFSET 0.000000 0.000000 0.000000
		CHANNELS 3 Xrotation Yrotation Zrotation
		JOINT Spine
		{
			OFFSET -0.279200 12.230698 -2.892100
			CHANNELS 3 Xrotation Yrotation Zrotation
			JOINT Spine1
			{
				OFFSET -0.232667 10.192268 -1.242267
				CHANNELS 3 Xrotation Yrotation Zrotation
				JOINT Spine1_split
				{
					OFFSET -0.232667 10.192268 -1.242267
					CHANNELS 3 Xrotation Yrotation Zrotation
					JOINT Spine2
					{
						OFFSET -0.232667 10.192268 -1.242267
						CHANNELS 3 Xrotation Yrotation Zrotation
						JOINT Neck_virtual
						{
							OFFSET 0.000000 0.000000 0.000000
							CHANNELS 3 Xrotation Yrotation Zrotation
							JOINT Neck
							{
								OFFSET -0.418800 17.814194 8.416900
								CHANNELS 3 Xrotation Yrotation Zrotation
								JOINT Head
								{
									OFFSET 0.000000 7.031097 3.806800
									CHANNELS 3 Xrotation Yrotation Zrotation
									JOINT HeadTop_End
									{
										OFFSET 0.000000 24.646606 12.978600
										CHANNELS 3 Xrotation Yrotation Zrotation
										End Site
										{
											OFFSET 0 0 0
										}
									}
								}
							}
						}
						JOINT LeftShoulder_virtual
						{
							OFFSET 0.000000 0.000000 0.000000
							CHANNELS 3 Xrotation Yrotation Zrotation
							JOINT LeftShoulder
							{
								OFFSET 8.476499 7.247704 -3.868750
								CHANNELS 3 Xrotation Yrotation Zrotation
								JOINT LeftShoulder_split
								{
									OFFSET 8.476499 7.247704 -3.868750
									CHANNELS 3 Xrotation Yrotation Zrotation
									JOINT LeftArm
									{
										OFFSET 9.308998 -2.777710 0.208600
										CHANNELS 3 Xrotation Yrotation Zrotation
										JOINT LeftForeArm
										{
											OFFSET 29.972298 0.000000 0.000000
											CHANNELS 3 Xrotation Yrotation Zrotation
											JOINT LeftHand
											{
												OFFSET 26.026505 0.000000 0.000000
												CHANNELS 3 Xrotation Yrotation Zrotation
												End Site
												{
													OFFSET 0 0 0
												}
											}
										}
									}
								}
							}
						}
						JOINT RightShoulder_virtual
						{
							OFFSET 0.000000 0.000000 0.000000
							CHANNELS 3 Xrotation Yrotation Zrotation
							JOINT RightShoulder
							{
								OFFSET -7.570500 7.247704 -3.868750
								CHANNELS 3 Xrotation Yrotation Zrotation
								JOINT RightShoulder_split
								{
									OFFSET -7.570500 7.247704 -3.868750
									CHANNELS 3 Xrotation Yrotation Zrotation
									JOINT RightArm
									{
										OFFSET -9.308998 -2.777710 0.208500
										CHANNELS 3 Xrotation Yrotation Zrotation
										JOINT RightForeArm
										{
											OFFSET -29.972300 0.000000 0.000000
											CHANNELS 3 Xrotation Yrotation Zrotation
											JOINT RightHand
											{
												OFFSET -26.026505 0.000000 0.000000
												CHANNELS 3 Xrotation Yrotation Zrotation
												End Site
												{
													OFFSET 0 0 0
												}
											}
										}
									}
								}
							}
						}
					}
				}
			}
		}
	}
}
MOTION
Frames: 11
Frame Time: 0.03333333
0.768171 99.654922 -6.636482 0.000000 0.000000 0.000000 -85.673487 -4.659482 1.442593 8.973391 18.399824 9.290848 -4.647440 4.763717 6.700193 29.286608 28.153888 -27.476227 -8.735190 -0.146414 2.068023 0.000000 0.000000 0.000000 -87.543320 -1.108271 3.768287 7.473801 -22.694820 -18.401669 0.596857 -0.444579 -6.716085 25.540391 -34.187440 30.256652 -6.568754 1.470897 -1.343613 0.000000 0.000000 0.000000 -85.933882 -5.778776 -0.582041 4.806911 -1.900070 0.871943 4.798755 -0.935490 -1.451590 0.462660 0.786796 -0.412428 0.000000 0.000000 0.000000 5.721857 -1.435163 -1.314038 -8.579258 -1.322473 2.493100 -9.609667 -3.652738 4.638491 0.000000 0.000000 0.000000 6.618173 -1.551756 -0.870957 -0.311931 3.720733 -7.595096 -4.212793 1.449737 -4.392560 39.907880 -32.087033 -34.547295 -24.472824 -88.326845 -23.943293 0.000000 0.000000 0.000000 5.815984 -1.555835 -1.395719 0.470730 -3.184621 19.590728 1.041577 2.300437 0.228557 -41.289426 50.029404 58.716589 179.902101 76.740242 178.533236 0.000000 0.000000 0.000000 
0.733232 99.661415 -7.067547 0.000000 0.000000 0.000000 -86.557293 -4.596818 1.566214 10.164154 18.578306 9.358348 -4.747151 5.204934 6.778011 28.730692 28.585272 -27.613975 -8.675167 -0.120149 2.183171 0.000000 0.000000 0.000000 -88.654715 -0.904622 4.110763 7.746701 -23.730859 -18.596452 0.716090 -0.263771 -6.634135 25.657817 -33.687207 30.316420 -6.640861 1.563609 -1.442553 0.000000 0.000000 0.000000 -87.010442 -5.519185 -0.337077 4.813772 -1.985959 0.906706 4.513950 -1.007307 -1.587752 0.626770 0.792228 -0.449493 0.000000 0.000000 0.000000 5.615852 -1.491848 -1.467127 -9.253690 -1.215340 2.636081 -11.521026 -3.155997 5.435108 0.000000 0.000000 0.000000 6.479815 -1.604728 -1.031989 -0.255165 3.238422 -6.876839 -4.355625 1.109489 -4.254876 39.077534 -32.017827 -35.804528 -25.307014 -88.477355 -24.694317 0.000000 0.000000 0.000000 5.598626 -1.592783 -1.514758 0.461984 -2.946458 18.287036 0.768785 2.592147 -0.040307 -45.139774 48.257715 61.392431 -178.306432 77.911708 176.703605 0.000000 0.000000 0.000000 
0.730071 99.620819 -7.255318 0.000000 0.000000 0.000000 -87.133577 -4.548996 1.555888 10.881065 18.610884 9.729196 -4.620005 5.546794 6.821410 28.371740 29.117865 -27.720369 -8.690878 -0.115976 2.340348 0.000000 0.000000 0.000000 -89.366441 -0.846065 4.177724 7.789831 -24.531125 -18.654561 0.653325 -0.178715 -6.462126 26.219414 -33.179211 30.408231 -7.164776 1.634899 -1.509745 0.000000 0.000000 0.000000 -87.730898 -5.319370 -0.249267 4.775052 -1.956690 1.034751 4.405612 -1.015484 -1.638314 0.780796 0.757876 -0.429726 0.000000 0.000000 0.000000 5.557333 -1.476358 -1.558792 -9.407007 -1.046658 2.429440 -11.735333 -2.577532 5.875677 0.000000 0.000000 0.000000 6.451259 -1.604860 -1.150903 -0.212782 2.718868 -6.440352 -4.365363 0.849433 -3.949602 38.557132 -32.093775 -36.460301 -25.654764 -88.831815 -25.041463 0.000000 0.000000 0.000000 5.534519 -1.536206 -1.546315 0.474519 -2.665795 17.245854 0.353342 2.708732 -0.245374 -46.709273 47.329564 61.971625 -176.544298 78.990530 174.953410 0.000000 0.000000 0.000000 
0.743160 99.567886 -7.229668 0.000000 0.000000 0.000000 -87.351528 -4.496081 1.443231 11.065411 18.460640 10.290320 -4.314495 5.723185 6.845231 28.291917 29.614327 -27.843044 -8.697571 -0.130113 2.488093 0.000000 0.000000 0.000000 -89.635940 -0.947190 3.957981 7.701686 -24.904961 -18.577099 0.494545 -0.185141 -6.279135 27.161354 -32.752543 30.610637 -8.106033 1.663921 -1.531839 0.000000 0.000000 0.000000 -88.066287 -5.222778 -0.331561 4.710184 -1.811900 1.229293 4.416206 -0.981752 -1.605546 1.008390 0.705054 -0.363889 0.000000 0.000000 0.000000 5.503437 -1.396856 -1.587350 -8.978544 -0.869555 1.928603 -10.136166 -1.967766 5.945635 0.000000 0.000000 0.000000 6.503930 -1.572333 -1.211130 -0.180706 2.268439 -6.283449 -4.148444 0.657701 -3.450898 38.470969 -32.376360 -36.491068 -25.955887 -89.291691 -25.403034 0.000000 0.000000 0.000000 5.615336 -1.421874 -1.499194 0.519391 -2.442705 16.604784 -0.086380 2.698492 -0.355148 -45.347361 47.584418 60.238642 -175.473406 79.647191 173.985627 0.000000 0.000000 0.000000 
0.744885 99.495270 -7.009766 0.000000 0.000000 0.000000 -87.275481 -4.513198 1.216043 10.760746 18.094039 10.881349 -3.943556 5.723432 6.907448 28.480787 30.048113 -27.953178 -8.589537 -0.144710 2.544243 0.000000 0.000000 0.000000 -89.412080 -1.111466 3.568303 7.587708 -24.747131 -18.317510 0.255572 -0.260646 -6.188181 28.169548 -32.578179 30.765819 -9.027867 1.641259 -1.501162 0.000000 0.000000 0.000000 -88.021604 -5.247111 -0.574523 4.627209 -1.590010 1.427299 4.493735 -0.940652 -1.516820 1.218299 0.559550 -0.233641 0.000000 0.000000 0.000000 5.428275 -1.292090 -1.551776 -7.947583 -0.724904 1.265738 -6.704874 -1.438214 5.616257 0.000000 0.000000 0.000000 6.628309 -1.540990 -1.212554 -0.149178 1.984415 -6.327108 -3.855115 0.613943 -2.900413 38.752379 -32.796014 -36.068060 -31.925909 -89.693532 -31.460326 0.000000 0.000000 0.000000 5.790209 -1.304957 -1.393979 0.591064 -2.391844 16.431319 -0.309466 2.729767 -0.437443 -40.561697 48.740237 56.110468 -175.713091 79.383382 174.443550 0.000000 0.000000 0.000000 
0.732992 99.416817 -6.747589 0.000000 0.000000 0.000000 -86.878504 -4.608251 0.899761 10.080420 17.560049 11.346104 -3.689083 5.614228 7.027727 28.728448 30.452057 -27.934499 -8.291773 -0.150871 2.466980 0.000000 0.000000 0.000000 -88.821173 -1.303539 3.080077 7.487480 -24.098659 -17.889630 -0.029568 -0.415509 -6.216896 28.956775 -32.753216 30.733649 -9.546798 1.576358 -1.394369 0.000000 0.000000 0.000000 -87.632413 -5.380913 -0.946655 4.552998 -1.344363 1.575822 4.599358 -0.928337 -1.377301 1.298290 0.336608 -0.161913 0.000000 0.000000 0.000000 5.308119 -1.188236 -1.461183 -6.356968 -0.656156 0.549396 -1.681263 -1.152625 4.927675 0.000000 0.000000 0.000000 6.786522 -1.531350 -1.139618 -0.119440 1.975539 -6.473678 -3.478739 0.631340 -2.417441 39.288402 -33.346336 -35.379697 -41.236366 -89.830976 -40.886096 0.000000 0.000000 0.000000 6.007554 -1.216651 -1.248501 0.688367 -2.626856 16.704947 -0.293221 2.806954 -0.473806 -32.407806 49.920657 49.753454 -177.179151 77.837457 176.208854 0.000000 0.000000 0.000000 
0.681281 99.326355 -6.439365 0.000000 0.000000 0.000000 -86.266034 -4.763878 0.544481 9.164532 17.003319 11.627982 -3.679517 5.447596 7.212950 28.915363 30.756233 -27.746665 -7.961330 -0.149221 2.272353 0.000000 0.000000 0.000000 -87.957960 -1.472940 2.614831 7.376151 -23.088619 -17.388798 -0.341814 -0.590289 -6.382840 29.494348 -33.193302 30.516711 -9.714753 1.494353 -1.209910 0.000000 0.000000 0.000000 -87.003257 -5.562334 -1.377494 4.522970 -1.125865 1.633821 4.703439 -0.960730 -1.198576 1.302727 0.305435 -0.125367 0.000000 0.000000 0.000000 5.140365 -1.122609 -1.317770 -4.319482 -0.713555 -0.112075 4.532463 -1.180631 3.976414 0.000000 0.000000 0.000000 6.923835 -1.559741 -0.994603 -0.095432 2.269057 -6.620132 -3.208256 0.631488 -2.113710 39.922913 -33.998667 -34.599566 -26.472879 -89.575254 -26.250563 0.000000 0.000000 0.000000 6.189750 -1.181930 -1.071182 0.801961 -3.208133 17.383853 -0.141464 2.967887 -0.545625 -22.141088 50.021331 42.333321 -178.800364 74.970137 178.170184 0.000000 0.000000 0.000000 
0.614778 99.218391 -6.172249 0.000000 0.000000 0.000000 -85.517206 -4.979018 0.155837 8.097972 16.533786 11.742719 -3.878085 5.228253 7.416329 29.044437 30.844957 -27.464165 -7.801083 -0.158900 2.050102 0.000000 0.000000 0.000000 -87.009042 -1.614718 2.178940 7.179063 -21.947215 -16.895366 -0.649207 -0.730251 -6.635837 30.033619 -33.690741 30.343191 -9.825067 1.415353 -0.984659 0.000000 0.000000 0.000000 -86.218837 -5.747793 -1.821264 4.565463 -0.976939 1.590777 4.775627 -1.055638 -0.988532 1.186580 0.372668 -0.177654 0.000000 0.000000 0.000000 4.927403 -1.108256 -1.128988 -2.006571 -0.840859 -0.661555 11.293989 -1.581404 2.900957 0.000000 0.000000 0.000000 6.989512 -1.631281 -0.787259 -0.084833 2.830155 -6.710021 -2.976516 0.645173 -2.076106 40.582368 -34.756490 -33.831279 -19.778676 -88.872386 -19.698764 0.000000 0.000000 0.000000 6.290957 -1.205807 -0.866855 0.934711 -4.111990 18.350135 0.083951 3.097170 -0.488353 -11.948365 48.505295 35.709663 -179.920993 71.250266 179.596846 0.000000 0.000000 0.000000 
0.542700 99.103378 -5.899940 0.000000 0.000000 0.000000 -84.742102 -5.162815 -0.199015 6.962487 16.256853 11.760495 -4.135172 4.950242 7.579439 29.182243 30.609479 -27.161521 -7.801172 -0.188201 1.854887 0.000000 0.000000 0.000000 -86.127012 -1.688888 1.816597 6.868769 -20.902481 -16.473986 -0.910096 -0.801710 -6.927553 30.766526 -34.045655 30.413128 -10.135866 1.347330 -0.748062 0.000000 0.000000 0.000000 -85.397309 -5.919623 -2.250992 4.699614 -0.910369 1.461055 4.787423 -1.214893 -0.743458 1.076585 0.605920 -0.173526 0.000000 0.000000 0.000000 4.679839 -1.169370 -0.894825 0.325794 -1.004113 -1.059320 17.988632 -2.206340 1.847957 0.000000 0.000000 0.000000 6.929697 -1.746819 -0.531243 -0.101400 3.581058 -6.731305 -2.775265 0.639187 -2.301365 41.239712 -35.637502 -33.091239 -16.836215 -87.850597 -16.910379 0.000000 0.000000 0.000000 6.281967 -1.277770 -0.637759 1.064520 -5.241392 19.516009 0.354279 3.281426 -0.351143 -3.704190 45.661679 31.363935 179.422376 67.564211 -179.518613 0.000000 0.000000 0.000000 
0.473085 99.000198 -5.658623 0.000000 0.000000 0.000000 -84.072095 -5.271534 -0.477620 5.794506 16.225823 11.801633 -4.285687 4.605530 7.661894 29.484923 30.012534 -26.968848 -7.862040 -0.231511 1.725337 0.000000 0.000000 0.000000 -85.364893 -1.694001 1.527282 6.536271 -20.101547 -16.101336 -1.107958 -0.817878 -7.243746 31.541291 -34.268077 30.629850 -10.632826 1.289543 -0.531648 0.000000 0.000000 0.000000 -84.652852 -6.071736 -2.640657 4.914474 -0.920502 1.284789 4.721397 -1.430809 -0.477100 0.987099 0.895953 -0.212023 0.000000 0.000000 0.000000 4.423160 -1.304223 -0.632758 2.439880 -1.127205 -1.269546 24.013697 -2.932003 0.919147 0.000000 0.000000 0.000000 6.741843 -1.904634 -0.256450 -0.148035 4.415109 -6.705163 -2.520129 0.678581 -2.706923 41.899710 -36.549483 -32.373775 -15.031407 -86.720576 -15.265082 0.000000 0.000000 0.000000 6.160201 -1.400799 -0.394458 1.182398 -6.420278 20.726037 0.690434 3.437996 -0.183309 2.073215 42.302538 29.462987 179.037263 64.722586 -178.990804 0.000000 0.000000 0.000000 
0.420667 98.928352 -5.440975 0.000000 0.000000 0.000000 -83.589412 -5.265676 -0.676576 4.735555 16.425135 11.907596 -4.267199 4.263292 7.642877 29.926228 29.200104 -26.890392 -7.820574 -0.279358 1.644925 0.000000 0.000000 0.000000 -84.809844 -1.597892 1.332680 6.281532 -19.655681 -15.767094 -1.166207 -0.921098 -7.553475 32.161442 -34.524646 30.720968 -11.017557 1.240372 -0.341735 0.000000 0.000000 0.000000 -84.086534 -6.224789 -2.986496 5.165245 -0.993382 1.097741 4.571981 -1.685806 -0.201876 0.971722 1.064882 -0.150358 0.000000 0.000000 0.000000 4.158862 -1.493823 -0.360269 4.062815 -1.175238 -1.303362 28.917761 -3.581282 0.188556 0.000000 0.000000 0.000000 6.440257 -2.088868 0.010811 -0.214046 5.213855 -6.693849 -2.134865 0.746814 -3.099178 42.534241 -37.435208 -31.705383 -13.378784 -85.677135 -13.781233 0.000000 0.000000 0.000000 5.954258 -1.556895 -0.158633 1.285959 -7.466961 21.825072 1.076549 3.555639 0.137117 5.768125 39.239850 29.159789 178.723921 63.463550 -178.606209 0.000000 0.000000 0.000000 
